HIERARCHY
ROOT Hips
{
	OFFSET 0.00000 0.00000 0.00000
	CHANNELS 6 Xposition Yposition Zposition Yrotation Zrotation Xrotation 
	JOINT Lumbar
	{
		OFFSET 0 0 0
		CHANNELS 3 Zrotation Xrotation Yrotation
		JOINT Neck
		{
			OFFSET 0.00 0.2701 0.00
			CHANNELS 3 Zrotation Xrotation Yrotation
			End Site
			{
				OFFSET 0.00 0.1379 0.00
			}
		}
		JOINT RightShoulder
		{
			OFFSET 0.0119 0.2289 0.1181
			CHANNELS 3 Zrotation Xrotation Yrotation
			JOINT RightElbow
			{
				OFFSET 0.00 -0.1475 0.00
				CHANNELS 2 Zrotation Yrotation
				JOINT RightWrist
				{
					OFFSET 0.00 -0.1605 0.00
					CHANNELS 2 Zrotation Xrotation
					End Site
					{
						OFFSET 0.0040 -0.1068 0.0006
					}
				}
			}
		}
		JOINT LeftShoulder
		{
			OFFSET 0.0119 0.2289 -0.1181
			CHANNELS 3 Zrotation Xrotation Yrotation
			JOINT LeftElbow
			{
				OFFSET 0.00 -0.1475 0.00
				CHANNELS 2 Zrotation Yrotation
				JOINT LeftWrist
				{
					OFFSET 0.00 -0.1605 0.00
					CHANNELS 2 Zrotation Xrotation
					End Site
					{
						OFFSET 0.0040 -0.1068 -0.0006
					}
				}
			}
		}
	}
	JOINT RightHip
	{
		OFFSET 0.0316 -0.0424 0.0458
		CHANNELS 3 Zrotation Xrotation Yrotation
		JOINT RightKnee
		{
			OFFSET 0.00 -0.2438 0.00
			CHANNELS 1 Zrotation
			JOINT RightAnkle
			{
				OFFSET 0.00 -0.2449 0.00
				CHANNELS 3 Zrotation Xrotation Yrotation
				End Site
				{
					OFFSET 0.1237 -0.0542 0.0051
				}
			}
		}
	}
	JOINT LeftHip
	{
		OFFSET 0.0316 -0.0424 -0.0458
		CHANNELS 3 Zrotation Xrotation Yrotation
		JOINT LeftKnee
		{
			OFFSET 0.00 -0.2438 0.00
			CHANNELS 1 Zrotation
			JOINT LeftAnkle
			{
				OFFSET 0.00 -0.2449 0.00
				CHANNELS 3 Zrotation Xrotation Yrotation
				End Site
				{
					OFFSET 0.1237 -0.0542 -0.0051
				}
			}
		}
	}
}
MOTION
Frames: 22
Frame Time: 0.02
0.0001 1e-05 1e-05 -180.06047 -40.22159 -3.26197 49.79427 2.75682 -2.46282 -21.78654 -1.46576 -0.58273 41.6098 -106.71849 55.63387 12.35685 85.75938 6.79274 -1.45042 27.74921 106.09475 -55.63398 7.0703 -87.82967 8.2373 -0.07162 43.90224 -6.61099 -8.08144 -21.84479 -6.70021 -2.37324 -3.40155 48.22862 11.97586 3.02983 -27.0568 -6.77441 1.91369 3.17177
0.0001 1e-05 2e-05 -180.06576 -40.22645 -3.26424 49.80042 2.75852 -2.46163 -21.76941 -1.46413 -0.58337 41.66592 -106.68895 55.63388 12.33447 85.76286 6.7964 -1.44149 27.72055 106.07271 -55.63398 7.06914 -87.77227 8.23325 -0.07975 43.90686 -6.62246 -8.13979 -21.84423 -6.69996 -2.37224 -3.39997 48.23324 11.96774 2.99514 -27.05642 -6.77406 1.91567 3.17336
0.0001 1e-05 2e-05 -180.07103 -40.23129 -3.2665 49.80655 2.76022 -2.46046 -21.75233 -1.46249 -0.58401 41.72191 -106.65946 55.63388 12.31218 85.76632 6.80003 -1.43256 27.69197 106.0507 -55.63398 7.06799 -87.71504 8.22921 -0.08788 43.91146 -6.63387 -8.19782 -21.84368 -6.69971 -2.37124 -3.39839 48.23784 11.95967 2.96069 -27.05604 -6.7737 1.91764 3.17494
0.0001 1e-05 2e-05 -180.0763 -40.23614 -3.26876 49.81267 2.76191 -2.45928 -21.73525 -1.46086 -0.58465 41.77787 -106.63001 55.63388 12.28987 85.76978 6.80368 -1.42365 27.66339 106.02871 -55.63398 7.06683 -87.65782 8.22517 -0.09599 43.91606 -6.6453 -8.25597 -21.84312 -6.69947 -2.37024 -3.39681 48.24244 11.95158 2.92613 -27.05566 -6.77335 1.91962 3.17652
0.0001 0 3e-05 -180.08159 -40.24101 -3.27103 49.81882 2.76362 -2.45808 -21.71812 -1.45923 -0.58529 41.83391 -106.60053 55.63388 12.26745 85.77325 6.80736 -1.41474 27.63473 106.0067 -55.63398 7.06566 -87.60046 8.22113 -0.10409 43.92069 -6.65679 -8.31447 -21.84256 -6.69922 -2.36922 -3.39522 48.24708 11.94342 2.89127 -27.05528 -6.77299 1.92161 3.17812
0.0001 0 3e-05 -180.0868 -40.24579 -3.27326 49.82491 2.7653 -2.45697 -21.70115 -1.45756 -0.58593 41.88979 -106.57103 55.63388 12.24547 85.7767 6.81087 -1.40577 27.60632 105.98468 -55.63398 7.06456 -87.54347 8.21706 -0.11227 43.92524 -6.66803 -8.37152 -21.84202 -6.69898 -2.36826 -3.39368 48.2516 11.93553 2.85766 -27.0549 -6.77264 1.92352 3.17967
0.0001 -0 4e-05 -180.09216 -40.25075 -3.27558 49.83112 2.76702 -2.45567 -21.68387 -1.45599 -0.58657 41.94599 -106.54158 55.63388 12.22262 85.78019 6.81472 -1.39692 27.57742 105.96271 -55.63398 7.06331 -87.48579 8.21306 -0.1203 43.92993 -6.67975 -8.43143 -21.84143 -6.69872 -2.36719 -3.39204 48.25634 11.92713 2.82161 -27.05452 -6.77228 1.92561 3.18131
0.0001 -0 4e-05 -180.09739 -40.25554 -3.27781 49.83721 2.76871 -2.45455 -21.66687 -1.45433 -0.58721 42.00179 -106.51213 55.63388 12.20056 85.78364 6.81828 -1.38799 27.54901 105.9407 -55.63398 7.0622 -87.42877 8.20901 -0.12845 43.9345 -6.69104 -8.48871 -21.84089 -6.69848 -2.36622 -3.39049 48.26088 11.91918 2.78775 -27.05414 -6.77192 1.92753 3.18287
0.0001 -1e-05 5e-05 -180.10246 -40.26011 -3.27993 49.84317 2.77034 -2.45365 -21.65026 -1.45253 -0.58785 42.05753 -106.48248 55.63388 12.17953 85.78706 6.82138 -1.37884 27.52104 105.91861 -55.63396 7.06126 -87.37247 8.20483 -0.13681 43.93892 -6.70178 -8.54276 -21.84043 -6.69825 -2.36537 -3.38904 48.26515 11.91187 2.75681 -27.05378 -6.77157 1.92925 3.1843
0.0001 -1e-05 5e-05 -180.10843 -40.26594 -3.28269 49.84991 2.77226 -2.45148 -21.63151 -1.45145 -0.58848 42.1149 -106.45339 55.63388 12.15276 85.79069 6.82683 -1.37059 27.49008 105.89686 -55.63403 7.05936 -87.31176 8.20121 -0.14414 43.94416 -6.71562 -8.61532 -21.83954 -6.69792 -2.36383 -3.38702 48.27091 11.90112 2.7098 -27.05335 -6.77121 1.93212 3.1864
0.0001 -1e-05 6e-05 -180.11252 -40.26913 -3.28409 49.855 2.77361 -2.45197 -21.61723 -1.4489 -0.58913 42.16802 -106.42351 55.63388 12.13798 85.79385 6.82748 -1.36066 27.46571 105.8745 -55.63391 7.05944 -87.2605 8.1965 -0.15354 43.9477 -6.72296 -8.64891 -21.83953 -6.69782 -2.36374 -3.38618 48.27358 11.89748 2.69622 -27.05305 -6.77086 1.9326 3.18711
0.0001 -2e-05 6e-05 -180.1113 -40.26468 -3.28184 49.85565 2.77306 -2.46016 -21.61583 -1.44182 -0.58984 42.21612 -106.38826 55.63393 12.15745 85.7959 6.81352 -1.34421 27.45728 105.84954 -55.63319 7.06541 -87.23423 8.18792 -0.16956 43.94626 -6.71201 -8.57375 -21.84218 -6.69834 -2.36776 -3.38874 48.26731 11.91474 2.77929 -27.05318 -6.77052 1.9261 3.18378
9e-05 -2e-05 7e-05 -180.10822 -40.25763 -3.27821 49.85462 2.77202 -2.47094 -21.61884 -1.43335 -0.59056 42.25874 -106.35291 55.63398 12.18876 85.79742 6.79486 -1.32642 27.4559 105.82422 -55.63228 7.07329 -87.21762 8.17833 -0.18752 43.94317 -6.69465 -8.45987 -21.84567 -6.6991 -2.3732 -3.39247 48.25802 11.9389 2.89506 -27.05344 -6.7702 1.91727 3.17909
9e-05 -2e-05 8e-05 -180.10608 -40.25204 -3.27515 49.85432 2.77146 -2.48027 -21.61943 -1.42585 -0.59126 42.29953 -106.31959 55.63402 12.21369 85.79909 6.77951 -1.3105 27.45265 105.79959 -55.63149 7.07994 -87.1972 8.16987 -0.20393 43.94103 -6.68051 -8.36479 -21.84863 -6.69975 -2.37789 -3.39557 48.25042 11.95901 2.99261 -27.05362 -6.76988 1.90978 3.17517
8e-05 -2e-05 9e-05 -180.10352 -40.24533 -3.27232 49.85422 2.76981 -2.49077 -21.62172 -1.41692 -0.59201 42.35849 -106.2775 55.63411 12.24258 85.8012 6.75984 -1.2893 27.44365 105.77246 -55.63057 7.088 -87.17436 8.15887 -0.22301 43.93803 -6.66498 -8.26423 -21.8522 -6.70041 -2.38301 -3.39906 48.24152 11.98298 3.10425 -27.0539 -6.76951 1.90113 3.17063
8e-05 -2e-05 0.0001 -180.10141 -40.24029 -3.26867 49.85325 2.77031 -2.49942 -21.62159 -1.41063 -0.59268 42.3784 -106.25412 55.63411 12.26635 85.8022 6.74726 -1.2787 27.44847 105.75079 -55.62986 7.09371 -87.15885 8.15256 -0.23718 43.93642 -6.6509 -8.16631 -21.85472 -6.70111 -2.38759 -3.40203 48.23457 12.00056 3.19447 -27.054 -6.76925 1.89431 3.16704
8e-05 -2e-05 0.00012 -180.10083 -40.24076 -3.26331 49.85085 2.77685 -2.50267 -21.61317 -1.41216 -0.5931 42.2915 -106.27845 55.63385 12.2704 85.8007 6.76224 -1.29844 27.48819 105.74126 -55.62973 7.09125 -87.16088 8.16277 -0.23551 43.9392 -6.6416 -8.08178 -21.85395 -6.70182 -2.39024 -3.40323 48.23415 11.99852 3.21565 -27.05353 -6.76923 1.8933 3.16651
9e-05 -2e-05 0.00015 -180.10079 -40.24293 -3.25715 49.84755 2.78557 -2.5039 -21.6023 -1.41634 -0.59346 42.16586 -106.32223 55.63351 12.26933 85.79802 6.78332 -1.32875 27.5419 105.73777 -55.62982 7.08656 -87.1699 8.17719 -0.22915 43.94341 -6.63409 -8.0018 -21.85213 -6.70257 -2.3923 -3.40388 48.23575 11.98986 3.21437 -27.05289 -6.76933 1.89417 3.16698
9e-05 -2e-05 0.00017 -180.10061 -40.24411 -3.25121 49.84427 2.79332 -2.5058 -21.59286 -1.4192 -0.59388 42.05778 -106.35987 55.63322 12.27244 85.79557 6.79705 -1.35376 27.59019 105.73354 -55.62982 7.0837 -87.17604 8.18742 -0.22611 43.94684 -6.6263 -7.92205 -21.85089 -6.70331 -2.39466 -3.40482 48.23617 11.98445 3.22473 -27.05235 -6.76941 1.89405 3.16692
0.0001 -2e-05 0.0002 -180.09991 -40.24611 -3.24577 49.8425 2.80101 -2.5088 -21.58211 -1.42256 -0.59418 41.94844 -106.38661 55.63286 12.26836 85.79432 6.82962 -1.38087 27.63465 105.72097 -55.62975 7.07754 -87.18166 8.20696 -0.21816 43.95074 -6.61615 -7.83156 -21.84922 -6.70402 -2.39691 -3.40561 48.23753 11.97829 3.23061 -27.0517 -6.76936 1.89441 3.16709
0.0001 -2e-05 0.00022 -180.10045 -40.24687 -3.2392 49.83751 2.80929 -2.50907 -21.57362 -1.42545 -0.5947 41.83418 -106.44006 55.63263 12.27761 85.79037 6.82484 -1.40605 27.69045 105.72704 -55.62989 7.07759 -87.1894 8.20845 -0.21922 43.95407 -6.61126 -7.76463 -21.8482 -6.70479 -2.39924 -3.40658 48.23754 11.972 3.23952 -27.05126 -6.76961 1.89427 3.16705
0.00012 -1e-05 0.00024 -180.10439 -40.24343 -3.22904 49.82284 2.81909 -2.50174 -21.57051 -1.42727 -0.59589 41.70286 -106.56758 55.6328 12.32719 85.77876 6.71229 -1.42417 27.77316 105.78447 -55.6306 7.0964 -87.20561 8.15648 -0.24694 43.95511 -6.62196 -7.7654 -21.84928 -6.70581 -2.40203 -3.40824 48.23257 11.96713 3.2667 -27.05133 -6.77073 1.89191 3.16594
